<svg xmlns="http://www.w3.org/2000/svg" viewBox="0 0 512 512">
  <rect width="512" height="512" rx="112" fill="#f6f1df"/>
  <circle cx="256" cy="256" r="204" fill="#00864a"/>
  <path d="M210 132l22-44h48l22 44" fill="none" stroke="#f6c744" stroke-width="22" stroke-linecap="round" stroke-linejoin="round"/>
  <path d="M164 166c0-35 28-63 63-63h58c35 0 63 28 63 63v181c0 45-36 81-81 81h-22c-45 0-81-36-81-81V166Z" fill="#f6f1df" stroke="#17211d" stroke-width="18"/>
  <path d="M191 187c0-20 16-36 36-36h58c20 0 36 16 36 36v82H191v-82Z" fill="#17211d"/>
  <path d="M213 174h34v68h-34zm52 0h34v68h-34z" fill="#7fb8c5"/>
  <path d="M201 307h110" fill="none" stroke="#00864a" stroke-width="22" stroke-linecap="round"/>
  <circle cx="218" cy="354" r="19" fill="#f6c744"/>
  <circle cx="294" cy="354" r="19" fill="#f6c744"/>
  <path d="M204 423l-22 37m126-37 22 37m-167 0h70m46 0h70" fill="none" stroke="#17211d" stroke-width="18" stroke-linecap="round"/>
</svg>
