<svg xmlns="http://www.w3.org/2000/svg" viewBox="0 0 64 64">
  <circle cx="32" cy="32" r="30" fill="#00864a"/>
  <path d="M25 13 29 7h6l4 6" fill="none" stroke="#f6c744" stroke-width="3" stroke-linecap="round" stroke-linejoin="round"/>
  <path d="M20 17c0-4 3-7 7-7h10c4 0 7 3 7 7v26c0 5-4 9-9 9h-6c-5 0-9-4-9-9V17Z" fill="#f6f1df" stroke="#17211d" stroke-width="2.5"/>
  <path d="M24 20c0-2 2-4 4-4h8c2 0 4 2 4 4v10H24V20Z" fill="#17211d"/>
  <path d="M27 19h4v8h-4zm6 0h4v8h-4z" fill="#7fb8c5"/>
  <path d="M25 35h14" fill="none" stroke="#00864a" stroke-width="3" stroke-linecap="round"/>
  <circle cx="27" cy="41" r="2.5" fill="#f6c744"/>
  <circle cx="37" cy="41" r="2.5" fill="#f6c744"/>
  <path d="m24 53-3 5m19-5 3 5M19 58h8m10 0h8" fill="none" stroke="#f6f1df" stroke-width="2.5" stroke-linecap="round"/>
</svg>
